<svg width="396" height="79" viewBox="0 0 396 79" fill="none" xmlns="http://www.w3.org/2000/svg">
<path d="M25.296 60.4448C18.896 60.4448 13.4987 58.3968 9.10399 54.3008C4.75199 50.2048 2.57599 44.8715 2.57599 38.3008C2.57599 31.6875 4.75199 26.3541 9.10399 22.3008C13.4987 18.2475 18.896 16.2208 25.296 16.2208C33.0613 16.2208 38.9493 19.3995 42.96 25.7568L35.408 29.8528C34.384 28.2315 32.976 26.9088 31.184 25.8848C29.4347 24.8181 27.472 24.2848 25.296 24.2848C21.4133 24.2848 18.2133 25.6075 15.696 28.2528C13.1787 30.8981 11.92 34.2475 11.92 38.3008C11.92 42.3541 13.1787 45.7035 15.696 48.3488C18.2133 50.9941 21.4133 52.3168 25.296 52.3168C27.088 52.3168 28.816 51.9968 30.48 51.3568C32.144 50.7168 33.4453 49.9488 34.384 49.0528V43.9328H23.12V35.9968H43.472V52.3808C38.6507 57.7568 32.592 60.4448 25.296 60.4448ZM73.9825 59.6128H65.8545V56.4128C63.6358 59.0581 60.3718 60.3808 56.0625 60.3808C53.2892 60.3808 50.7932 59.4848 48.5745 57.6928C46.3985 55.8581 45.3105 53.3408 45.3105 50.1408C45.3105 46.8128 46.3772 44.3168 48.5105 42.6528C50.6865 40.9888 53.2038 40.1568 56.0625 40.1568C60.4572 40.1568 63.7212 41.4155 65.8545 43.9328V39.7728C65.8545 38.1941 65.2358 36.9355 63.9985 35.9968C62.7612 35.0581 61.1185 34.5888 59.0705 34.5888C55.6998 34.5888 52.6918 35.8048 50.0465 38.2368L46.9745 32.7968C50.6438 29.5541 55.1452 27.9328 60.4785 27.9328C64.4465 27.9328 67.6892 28.8501 70.2065 30.6848C72.7238 32.5195 73.9825 35.5061 73.9825 39.6448V59.6128ZM59.3265 54.8768C62.3558 54.8768 64.5318 53.9808 65.8545 52.1888V48.3488C64.5318 46.5568 62.3558 45.6608 59.3265 45.6608C57.6625 45.6608 56.2758 46.0875 55.1665 46.9408C54.0572 47.7515 53.5025 48.8821 53.5025 50.3328C53.5025 51.7408 54.0572 52.8501 55.1665 53.6608C56.2758 54.4715 57.6625 54.8768 59.3265 54.8768ZM89.2125 60.3808C86.3538 60.3808 84.1778 59.6555 82.6845 58.2048C81.1912 56.7541 80.4445 54.6635 80.4445 51.9328V35.8048H75.3245V28.7008H80.4445V20.2528H88.6365V28.7008H94.9085V35.8048H88.6365V49.7568C88.6365 50.7381 88.8925 51.5488 89.4045 52.1888C89.9165 52.8288 90.5992 53.1488 91.4525 53.1488C92.7325 53.1488 93.6712 52.8501 94.2685 52.2528L95.9965 58.3968C94.5032 59.7195 92.2418 60.3808 89.2125 60.3808ZM111.797 60.3808C107.019 60.3808 103.072 58.8875 99.9575 55.9008C96.8428 52.9141 95.2855 48.9888 95.2855 44.1248C95.2855 39.5595 96.7788 35.7195 99.7655 32.6048C102.795 29.4901 106.635 27.9328 111.285 27.9328C115.893 27.9328 119.627 29.5115 122.485 32.6688C125.344 35.7835 126.773 39.8795 126.773 44.9568V46.7488H103.797C104.053 48.7968 104.971 50.5035 106.549 51.8688C108.128 53.2341 110.176 53.9168 112.693 53.9168C114.059 53.9168 115.531 53.6395 117.109 53.0848C118.731 52.5301 120.011 51.7835 120.949 50.8448L124.533 56.0928C121.419 58.9515 117.173 60.3808 111.797 60.3808ZM118.901 41.2448C118.773 39.4955 118.069 37.9168 116.789 36.5088C115.552 35.1008 113.717 34.3968 111.285 34.3968C108.981 34.3968 107.189 35.1008 105.909 36.5088C104.629 37.8741 103.883 39.4528 103.669 41.2448H118.901ZM166.18 59.6128H154.98L142.052 42.5248L138.724 46.4928V59.6128H129.636V16.9248H138.724V35.9968L153.828 16.9248H165.028L148.068 36.9568L166.18 59.6128ZM181.46 60.3808C176.681 60.3808 172.735 58.8875 169.62 55.9008C166.505 52.9141 164.948 48.9888 164.948 44.1248C164.948 39.5595 166.441 35.7195 169.428 32.6048C172.457 29.4901 176.297 27.9328 180.948 27.9328C185.556 27.9328 189.289 29.5115 192.148 32.6688C195.007 35.7835 196.436 39.8795 196.436 44.9568V46.7488H173.46C173.716 48.7968 174.633 50.5035 176.212 51.8688C177.791 53.2341 179.839 53.9168 182.356 53.9168C183.721 53.9168 185.193 53.6395 186.772 53.0848C188.393 52.5301 189.673 51.7835 190.612 50.8448L194.196 56.0928C191.081 58.9515 186.836 60.3808 181.46 60.3808ZM188.564 41.2448C188.436 39.4955 187.732 37.9168 186.452 36.5088C185.215 35.1008 183.38 34.3968 180.948 34.3968C178.644 34.3968 176.852 35.1008 175.572 36.5088C174.292 37.8741 173.545 39.4528 173.332 41.2448H188.564ZM213.635 60.3808C208.856 60.3808 204.91 58.8875 201.795 55.9008C198.68 52.9141 197.123 48.9888 197.123 44.1248C197.123 39.5595 198.616 35.7195 201.603 32.6048C204.632 29.4901 208.472 27.9328 213.123 27.9328C217.731 27.9328 221.464 29.5115 224.323 32.6688C227.182 35.7835 228.611 39.8795 228.611 44.9568V46.7488H205.635C205.891 48.7968 206.808 50.5035 208.387 51.8688C209.966 53.2341 212.014 53.9168 214.531 53.9168C215.896 53.9168 217.368 53.6395 218.947 53.0848C220.568 52.5301 221.848 51.7835 222.787 50.8448L226.371 56.0928C223.256 58.9515 219.011 60.3808 213.635 60.3808ZM220.739 41.2448C220.611 39.4955 219.907 37.9168 218.627 36.5088C217.39 35.1008 215.555 34.3968 213.123 34.3968C210.819 34.3968 209.027 35.1008 207.747 36.5088C206.467 37.8741 205.72 39.4528 205.507 41.2448H220.739ZM248.946 60.3808C245.063 60.3808 241.885 58.8021 239.41 55.6448V71.3888H231.282V28.7008H239.41V32.6048C241.842 29.4901 245.021 27.9328 248.946 27.9328C252.999 27.9328 256.285 29.3835 258.802 32.2848C261.362 35.1435 262.642 39.0901 262.642 44.1248C262.642 49.1595 261.362 53.1275 258.802 56.0288C256.285 58.9301 252.999 60.3808 248.946 60.3808ZM246.386 53.1488C248.733 53.1488 250.61 52.3168 252.018 50.6528C253.469 48.9888 254.194 46.8128 254.194 44.1248C254.194 41.4795 253.469 39.3248 252.018 37.6608C250.61 35.9968 248.733 35.1648 246.386 35.1648C245.063 35.1648 243.741 35.5061 242.418 36.1888C241.095 36.8715 240.093 37.7035 239.41 38.6848V49.6288C240.093 50.6101 241.095 51.4421 242.418 52.1248C243.783 52.8075 245.106 53.1488 246.386 53.1488ZM279.922 60.3808C275.144 60.3808 271.197 58.8875 268.082 55.9008C264.968 52.9141 263.41 48.9888 263.41 44.1248C263.41 39.5595 264.904 35.7195 267.89 32.6048C270.92 29.4901 274.76 27.9328 279.41 27.9328C284.018 27.9328 287.752 29.5115 290.61 32.6688C293.469 35.7835 294.898 39.8795 294.898 44.9568V46.7488H271.922C272.178 48.7968 273.096 50.5035 274.674 51.8688C276.253 53.2341 278.301 53.9168 280.818 53.9168C282.184 53.9168 283.656 53.6395 285.234 53.0848C286.856 52.5301 288.136 51.7835 289.074 50.8448L292.658 56.0928C289.544 58.9515 285.298 60.3808 279.922 60.3808ZM287.026 41.2448C286.898 39.4955 286.194 37.9168 284.914 36.5088C283.677 35.1008 281.842 34.3968 279.41 34.3968C277.106 34.3968 275.314 35.1008 274.034 36.5088C272.754 37.8741 272.008 39.4528 271.794 41.2448H287.026ZM305.698 59.6128H297.57V28.7008H305.698V32.9248C306.85 31.4741 308.322 30.2795 310.114 29.3408C311.906 28.4021 313.719 27.9328 315.554 27.9328V35.8688C314.999 35.7408 314.252 35.6768 313.314 35.6768C311.948 35.6768 310.498 36.0181 308.962 36.7008C307.426 37.3835 306.338 38.2155 305.698 39.1968V59.6128Z" fill="#F6F4F1"/>
<path d="M324 29.7464C324 24.7719 328.029 20.7393 333 20.7393H387C391.971 20.7393 396 24.7719 396 29.7464V54.516C396 59.4905 391.971 63.5231 387 63.5231H333C328.029 63.5231 324 59.4904 324 54.516V29.7464Z" fill="#F6F4F1"/>
<path d="M352.411 61.108C356.595 60.5829 332.921 61.1067 332.921 61.1067C332.921 61.1067 342.752 78.7323 343.522 75.2946C346.048 64.0171 348.228 61.6332 352.411 61.108Z" fill="#F6F4F1"/>
<path d="M340 27.7393L343.59 34.8023L352 35.7605L345.808 41.084L347.416 48.7393L340 44.9663L332.584 48.7393L334.192 41.084L328 35.7605L336.41 34.8023L340 27.7393Z" fill="#806491"/>
<path d="M360 35.7393L363.59 42.8023L372 43.7605L365.808 49.084L367.416 56.7393L360 52.9663L352.584 56.7393L354.192 49.084L348 43.7605L356.41 42.8023L360 35.7393Z" fill="#806491"/>
<path d="M379 27.7393L382.29 34.8023L390 35.7605L384.324 41.084L385.798 48.7393L379 44.9663L372.202 48.7393L373.676 41.084L368 35.7605L375.71 34.8023L379 27.7393Z" fill="#806491"/>
</svg>
